Coordinates
version=1
nRows=29
nColumns=22
inDegrees=yes

Units are S.I. units (second, meters, Newtons, ...)
If the header above contains a line with 'inDegrees', this indicates whether rotational values are in degrees (yes) or radians (no).

endheader
time	pelvis_tilt	pelvis_list	pelvis_rotation	pelvis_tx	pelvis_ty	pelvis_tz	hip_flexion_r	hip_adduction_r	hip_rotation_r	knee_angle_r	ankle_angle_r	subtalar_angle_r	hip_flexion_l	hip_adduction_l	hip_rotation_l	knee_angle_l	ankle_angle_l	subtalar_angle_l	lumbar_extension	lumbar_bending	lumbar_rotation
      1.71000000	     -4.64605276	      0.88528461	    -18.05520787	     -1.04469499	      0.87647175	     -0.37842889	      2.38014248	      0.94484537	      9.57065859	    -15.95089536	     21.95620916	     -6.30288236	     34.65488717	    -12.78966236	     -7.01925289	    -53.71711055	     10.47644651	      1.52646844	     -6.09189177	      0.41549843	     17.47895629
      1.72000000	     -4.62193591	      0.92327449	    -18.16243467	     -1.04064449	      0.87620673	     -0.37776978	      1.84351189	      0.77895581	      9.56694243	    -15.48296761	     21.99280845	     -6.12226657	     35.00173441	    -12.71527544	     -6.70730412	    -52.17111120	     10.28827115	      1.78241436	     -6.18179131	      0.38449776	     17.72750420
      1.73000000	     -4.58916978	      0.93998605	    -18.26637286	     -1.03643841	      0.87583420	     -0.37715482	      1.28659806	      0.62840142	      9.57638666	    -15.03073938	     22.11650220	     -5.91380848	     35.28359563	    -12.65341641	     -6.37253716	    -50.51910403	     10.11464652	      2.13926984	     -6.28576424	      0.37180796	     17.95987124
      1.74000000	     -4.56513516	      0.94682357	    -18.34653176	     -1.03208487	      0.87535430	     -0.37660862	      0.74484199	      0.48831839	      9.55704944	    -14.61729177	     22.20039347	     -5.74675903	     35.53266323	    -12.58905044	     -6.00307064	    -48.77667601	      9.87672765	      2.47982481	     -6.38113790	      0.36830590	     18.17021351
      1.75000000	     -4.54672416	      0.94307974	    -18.42024573	     -1.02756548	      0.87475878	     -0.37610613	      0.21024226	      0.35954508	      9.54178699	    -14.23719888	     22.32682527	     -5.59009400	     35.74243027	    -12.53823464	     -5.63126405	    -46.96509481	      9.60895290	      2.84446132	     -6.46695504	      0.37542034	     18.36572587
      1.76000000	     -4.52400159	      0.92684833	    -18.49328067	     -1.02290637	      0.87407027	     -0.37562425	     -0.31465410	      0.24561471	      9.54771663	    -13.91542673	     22.51030097	     -5.42461095	     35.89797701	    -12.50304615	     -5.25849968	    -45.08856273	      9.32506196	      3.27426775	     -6.56030775	      0.38812850	     18.53726183
      1.77000000	     -4.51722448	      0.91399747	    -18.55604066	     -1.01808298	      0.87326630	     -0.37520159	     -0.80473494	      0.13066071	      9.52659472	    -13.64655120	     22.69318911	     -5.28745248	     36.03602664	    -12.47400728	     -4.90365724	    -43.17279634	      8.98878781	      3.68583369	     -6.62675285	      0.40107537	     18.69791256
      1.78000000	     -4.52007279	      0.89943248	    -18.62400006	     -1.01311781	      0.87235938	     -0.37479380	     -1.26616000	      0.02187842	      9.51354423	    -13.43410979	     22.90912994	     -5.15255247	     36.14671131	    -12.46464833	     -4.57733235	    -41.23099478	      8.63421108	      4.12736033	     -6.67768312	      0.41188494	     18.85086737
      1.79000000	     -4.53494232	      0.88746629	    -18.69057915	     -1.00801062	      0.87134854	     -0.37442620	     -1.68905105	     -0.08544357	      9.50071815	    -13.29021534	     23.14852328	     -5.02850930	     36.23944844	    -12.46684479	     -4.28346736	    -39.27944297	      8.28105825	      4.56245828	     -6.70899589	      0.42014019	     18.98985312
      1.80000000	     -4.57733670	      0.88372408	    -18.75844004	     -1.00276054	      0.87021319	     -0.37410077	     -2.06247264	     -0.19457683	      9.47441526	    -13.19776613	     23.40602686	     -4.93134365	     36.34152393	    -12.48161174	     -4.02921214	    -37.34371210	      7.92755894	      4.92347030	     -6.70012962	      0.42548271	     19.12913638
      1.81000000	     -4.60108178	      0.86462711	    -18.84065468	     -0.99738660	      0.86902533	     -0.37376080	     -2.42918039	     -0.28871996	      9.49856005	    -13.18843018	     23.70172786	     -4.79541656	     36.38857335	    -12.52455024	     -3.81408853	    -35.42623708	      7.68239717	      5.36114160	     -6.71487223	      0.42965793	     19.23907100
      1.82000000	     -4.65391563	      0.84859487	    -18.92155458	     -0.99186694	      0.86771372	     -0.37348230	     -2.75463320	     -0.38157289	      9.51125352	    -13.21661686	     24.01206957	     -4.67953172	     36.46150028	    -12.58154628	     -3.64304076	    -33.56862936	      7.46575785	      5.69509741	     -6.69022975	      0.44123112	     19.35164370
      1.83000000	     -4.72027700	      0.83258836	    -19.00401224	     -0.98620007	      0.86630565	     -0.37325327	     -3.05474670	     -0.47386759	      9.52227712	    -13.28671728	     24.33846647	     -4.58780038	     36.54410306	    -12.65076607	     -3.52048704	    -31.78664610	      7.30022406	      5.92538411	     -6.64491719	      0.45470679	     19.46391042
      1.84000000	     -4.79779900	      0.79609299	    -19.08628225	     -0.98042698	      0.86480964	     -0.37305225	     -3.33777416	     -0.53924116	      9.57797448	    -13.40339653	     24.67465450	     -4.51487538	     36.64356408	    -12.75115909	     -3.43510000	    -30.10564390	      7.18236826	      6.06537756	     -6.59568648	      0.48942844	     19.53143457
      1.85000000	     -4.84833261	      0.76877128	    -19.17799736	     -0.97443827	      0.86328357	     -0.37289592	     -3.65478283	     -0.63773305	      9.59345598	    -13.52547541	     25.01406039	     -4.40925179	     36.71161331	    -12.84947796	     -3.44576054	    -28.53602395	      7.15656072	      6.20704894	     -6.56091477	      0.50063525	     19.63952633
      1.86000000	     -4.92425150	      0.70872161	    -19.25846825	     -0.96836061	      0.86165971	     -0.37278322	     -3.95476605	     -0.69115132	      9.65612656	    -13.67535188	     25.34638739	     -4.34176488	     36.83461365	    -12.98658315	     -3.48355995	    -27.11866611	      7.12055499	      6.24310437	     -6.51586951	      0.55172667	     19.68756748
      1.87000000	     -4.98412940	      0.65582402	    -19.34692485	     -0.96210260	      0.86000352	     -0.37271724	     -4.28282680	     -0.76948806	      9.70486228	    -13.81994432	     25.67112898	     -4.26766688	     36.95299392	    -13.12256932	     -3.61047763	    -25.84919085	      7.11727558	      6.23210131	     -6.48158901	      0.58375027	     19.75202008
      1.88000000	     -5.02387619	      0.60666169	    -19.44330612	     -0.95566360	      0.85833440	     -0.37271042	     -4.65421871	     -0.87416813	      9.73980523	    -13.93698865	     25.97046451	     -4.16306843	     37.06549592	    -13.25669068	     -3.82342790	    -24.74181867	      7.13380761	      6.13961386	     -6.46661907	      0.60008029	     19.83272520
      1.89000000	     -5.07224816	      0.53571556	    -19.53704169	     -0.94909604	      0.85661806	     -0.37275448	     -5.03651312	     -0.95901569	      9.79304301	    -14.05094371	     26.24827815	     -4.07010772	     37.21251983	    -13.41387962	     -4.06943002	    -23.81567657	      7.14053868	      5.97646108	     -6.45595333	      0.63554838	     19.88739698
      1.90000000	     -5.12165609	      0.44536634	    -19.63926662	     -0.94238873	      0.85487900	     -0.37283732	     -5.43941066	     -1.03353108	      9.85536032	    -14.15189114	     26.49862321	     -3.98610143	     37.37933050	    -13.59553806	     -4.35406873	    -23.07312279	      7.14479415	      5.78389858	     -6.45681266	      0.68313715	     19.94004761
      1.91000000	     -5.16270653	      0.35036491	    -19.74207784	     -0.93548876	      0.85314692	     -0.37300379	     -5.88736534	     -1.12717515	      9.88534053	    -14.19879631	     26.69481871	     -3.86194193	     37.54694052	    -13.77403966	     -4.66098430	    -22.50089155	      7.17198509	      5.50152483	     -6.47040606	      0.72928170	     20.00721913
      1.92000000	     -5.21349155	      0.22455158	    -19.85474947	     -0.92843458	      0.85140686	     -0.37318019	     -6.35471929	     -1.19637047	      9.92568767	    -14.22567008	     26.85250154	     -3.72955819	     37.73391079	    -13.98970367	     -4.97010255	    -22.11241513	      7.21054901	      5.24163493	     -6.48777308	      0.79893822	     20.07669346
      1.93000000	     -5.25967846	      0.09175477	    -19.96450008	     -0.92118206	      0.84969736	     -0.37344013	     -6.85588080	     -1.28125623	      9.93163114	    -14.21501180	     26.95523159	     -3.52901003	     37.91907469	    -14.20001235	     -5.27805347	    -21.88871287	      7.24240940	      4.90653336	     -6.51677742	      0.87101029	     20.13427181
      1.94000000	     -5.33021289	     -0.07895495	    -20.09291466	     -0.91373808	      0.84798674	     -0.37370084	     -7.36753923	     -1.33222432	      9.97300030	    -14.17992181	     26.98764965	     -3.37221305	     38.12624104	    -14.46245495	     -5.58714584	    -21.84416872	      7.35221412	      4.69483978	     -6.53432373	      0.97877769	     20.21999027
      1.95000000	     -5.37975528	     -0.23803724	    -20.22025091	     -0.90605325	      0.84636666	     -0.37405652	     -7.92587104	     -1.43017563	      9.95689477	    -14.10165008	     26.95668193	     -3.02943048	     38.29713910	    -14.69085627	     -5.88396760	    -21.93525244	      7.39008116	      4.26230226	     -6.57013979	      1.06151635	     20.30717306
      1.96000000	     -5.45674800	     -0.42115470	    -20.36391456	     -0.89814528	      0.84476577	     -0.37445555	     -8.48675322	     -1.50992281	      9.98993840	    -14.00002891	     26.84020838	     -2.74373997	     38.48487002	    -14.95086711	     -6.17170164	    -22.18620685	      7.47152917	      3.95229958	     -6.58428922	      1.17154586	     20.42434148
      1.97000000	     -5.54773749	     -0.59771283	    -20.51418221	     -0.88995941	      0.84321625	     -0.37492502	     -9.05826634	     -1.61324765	     10.01419745	    -13.86705650	     26.65137206	     -2.39401720	     38.65462674	    -15.19736678	     -6.45664058	    -22.54720783	      7.55714252	      3.59226220	     -6.57453043	      1.27287022	     20.54896763
      1.98000000	     -5.64871350	     -0.74676934	    -20.66047879	     -0.88150129	      0.84171313	     -0.37551891	     -9.62308266	     -1.76073648	     10.04065002	    -13.73318160	     26.37966094	     -1.94996701	     38.82508645	    -15.40169352	     -6.73737759	    -23.04141801	      7.62660117	      3.16480373	     -6.53824163	      1.34701563	     20.65235835
      1.99000000	     -5.79160921	     -0.89510664	    -20.82697389	     -0.87277833	      0.84024681	     -0.37614532	    -10.17597920	     -1.91004710	     10.12572930	    -13.55584015	     25.99340152	     -1.65450629	     39.00079727	    -15.61636398	     -7.01236268	    -23.63251106	      7.68992897	      2.90350192	     -6.44723329	      1.42489457	     20.80328192
